<svg width="25" height="25" viewBox="0 0 25 25" fill="none" xmlns="http://www.w3.org/2000/svg">
<path d="M0.183596 22.9505C0.183596 22.9505 0.456305 23.6336 0.865366 24.0434C1.41078 24.5899 2.09255 24.8631 2.09255 24.8631C2.09255 24.8631 3.31974 25.8194 5.91046 22.6773C7.41035 20.7648 8.91024 18.8522 10.1374 17.3495C11.501 18.4424 13.4099 19.1255 15.4552 19.1255C20.773 19.1255 25 14.8905 25 9.56273C25 4.23492 20.773 0 15.4552 0C10.1374 0 5.91046 4.23492 5.91046 9.56273C5.91046 11.6119 6.59223 13.5244 7.68306 15.0271C6.18317 16.12 4.27421 17.7593 2.2289 19.2621C-0.907234 21.5844 0.183596 22.9505 0.183596 22.9505ZM15.4552 2.73221C19.2731 2.73221 22.2729 5.73764 22.2729 9.56273C22.2729 13.3878 19.2731 16.3932 15.4552 16.3932C11.6373 16.3932 8.63754 13.3878 8.63754 9.56273C8.63754 5.73764 11.6373 2.73221 15.4552 2.73221Z" fill="black" fill-opacity="0.4"/>
</svg>
